<svg width="65" height="42" viewBox="0 0 65 42" fill="none" xmlns="http://www.w3.org/2000/svg">
<path d="M23.0163 7.24588L16.4098 25.1475L26.959 30.4754L33.6721 12.5737L23.0163 7.24588Z" fill="white" stroke="white" stroke-width="0.213115"/>
<path d="M28.1312 30.4754L34.5246 13.7459L40.5984 26.2131L28.1312 30.4754Z" fill="white" stroke="white" stroke-width="0.213115"/>
<path d="M12.6319 14.8793L10.5782 15.4605C10.4491 15.1182 10.2586 14.7857 10.0067 14.4627C9.76127 14.1334 9.42546 13.8622 8.99924 13.6491C8.57301 13.4359 8.0273 13.3294 7.36213 13.3294C6.45153 13.3294 5.69272 13.5393 5.08566 13.959C4.48508 14.3723 4.18478 14.8987 4.18478 15.538C4.18478 16.1063 4.39144 16.5552 4.80475 16.8845C5.21805 17.2139 5.86387 17.4883 6.74216 17.7079L8.95079 18.2504C10.2811 18.5733 11.2724 19.0673 11.9247 19.7325C12.577 20.3912 12.9031 21.2405 12.9031 22.2801C12.9031 23.1326 12.6577 23.8947 12.1669 24.5664C11.6825 25.2379 11.0045 25.7675 10.1326 26.1549C9.26077 26.5424 8.24688 26.7363 7.09088 26.7363C5.57324 26.7363 4.31717 26.4068 3.32263 25.7481C2.32808 25.0894 1.69843 24.1272 1.43365 22.8615L3.60355 22.3189C3.81021 23.1198 4.20091 23.7203 4.77568 24.1208C5.35691 24.5212 6.11573 24.7213 7.05213 24.7213C8.11771 24.7213 8.96371 24.4952 9.59014 24.0432C10.223 23.5848 10.5395 23.0358 10.5395 22.3965C10.5395 21.8799 10.3587 21.447 9.997 21.0984C9.63534 20.7432 9.07996 20.4784 8.33082 20.304L5.85093 19.7228C4.4883 19.3999 3.4873 18.8994 2.84795 18.2213C2.21507 17.5368 1.89863 16.6811 1.89863 15.6542C1.89863 14.8147 2.13436 14.072 2.60579 13.4262C3.08368 12.7804 3.73272 12.2735 4.55287 11.9054C5.3795 11.5373 6.31593 11.3532 7.36213 11.3532C8.83454 11.3532 9.99054 11.6761 10.8301 12.3219C11.6761 12.9677 12.2767 13.8202 12.6319 14.8793Z" fill="white"/>
<path d="M47.0014 6.58716V26.4262H44.7153V6.58716H47.0014ZM57.4272 26.7363C55.9936 26.7363 54.7569 26.4198 53.7171 25.7869C52.6837 25.1475 51.8862 24.2563 51.3244 23.1133C50.7689 21.9638 50.4912 20.6269 50.4912 19.1028C50.4912 17.5787 50.7689 16.2354 51.3244 15.073C51.8862 13.9041 52.6677 12.9935 53.6687 12.3413C54.6761 11.6825 55.8514 11.3532 57.1947 11.3532C57.9696 11.3532 58.7349 11.4823 59.4906 11.7407C60.2461 11.999 60.9338 12.4187 61.554 13C62.1739 13.5747 62.6679 14.3368 63.036 15.2861C63.404 16.2354 63.5881 17.4044 63.5881 18.7928V19.7615H52.1187V17.7854H61.2633C61.2633 16.9458 61.0953 16.1967 60.7595 15.538C60.4302 14.8793 59.9588 14.3594 59.3452 13.9784C58.7381 13.5973 58.0214 13.4068 57.1947 13.4068C56.2841 13.4068 55.4962 13.6329 54.831 14.0849C54.1723 14.5305 53.6653 15.1117 53.3103 15.8286C52.955 16.5454 52.7775 17.3139 52.7775 18.1341V19.4515C52.7775 20.5752 52.9712 21.5278 53.3586 22.3093C53.7525 23.0841 54.2983 23.6751 54.9958 24.0819C55.6933 24.4824 56.5038 24.6825 57.4272 24.6825C58.0278 24.6825 58.5703 24.5985 59.0545 24.4306C59.5453 24.2563 59.9684 23.998 60.3236 23.6557C60.6787 23.3071 60.9532 22.8742 61.1469 22.3576L63.3556 22.9776C63.1231 23.7267 62.7325 24.3854 62.1835 24.9538C61.6345 25.5156 60.9566 25.9548 60.1493 26.2713C59.342 26.5811 58.4346 26.7363 57.4272 26.7363Z" fill="white"/>
<path d="M21.2727 39.6394V34.6795H24.2467V35.2123H21.8732V36.8883H24.0238V37.421H21.8732V39.6394H21.2727ZM25.8759 34.6795V39.6394H25.2752V34.6795H25.8759ZM31.0131 34.6795V39.6394H30.4317L27.7292 35.7451H27.6806V39.6394H27.08V34.6795H27.6612L30.3737 38.5834H30.4221V34.6795H31.0131ZM33.7454 39.6394H32.2148V34.6795H33.8132C34.2944 34.6795 34.7059 34.7788 35.0482 34.9775C35.3904 35.1744 35.653 35.4578 35.8354 35.8276C36.0179 36.1956 36.1091 36.6364 36.1091 37.1497C36.1091 37.6663 36.017 38.1113 35.8329 38.4843C35.649 38.8555 35.3809 39.1413 35.0288 39.3414C34.6769 39.54 34.249 39.6394 33.7454 39.6394ZM32.8154 39.1066H33.7066C34.1167 39.1066 34.4566 39.0275 34.7262 38.8692C34.9958 38.711 35.1967 38.4858 35.3293 38.1936C35.4616 37.9014 35.5277 37.5534 35.5277 37.1497C35.5277 36.7493 35.4625 36.4047 35.3316 36.1157C35.2008 35.825 35.0056 35.6023 34.7456 35.4474C34.4856 35.2907 34.1618 35.2123 33.7744 35.2123H32.8154V39.1066ZM37.1165 39.6394V34.6795H40.1097V35.2123H37.717V36.8883H39.9547V37.421H37.717V39.1066H40.1485V39.6394H37.1165ZM41.1923 39.6394V34.6795H42.8682C43.2557 34.6795 43.5736 34.7458 43.8223 34.8782C44.071 35.009 44.255 35.1889 44.3745 35.4182C44.4939 35.6475 44.5537 35.9081 44.5537 36.2005C44.5537 36.4927 44.4939 36.7519 44.3745 36.9778C44.255 37.2039 44.0717 37.3814 43.8247 37.5106C43.5777 37.6382 43.2621 37.7019 42.8778 37.7019H41.5215V37.1595H42.8584C43.1233 37.1595 43.3364 37.1208 43.4978 37.0432C43.6608 36.9658 43.7786 36.8559 43.8513 36.7139C43.9257 36.5701 43.9628 36.3989 43.9628 36.2005C43.9628 36.0019 43.9257 35.8282 43.8513 35.6797C43.7772 35.5311 43.6584 35.4167 43.4954 35.3359C43.3324 35.2535 43.1167 35.2123 42.8488 35.2123H41.7928V39.6394H41.1923ZM43.5267 37.4112L44.7475 39.6394H44.0499L42.8488 37.4112H43.5267Z" fill="white"/>
<path d="M19.8197 37.1885H3.19672" stroke="white" stroke-width="0.42623"/>
<path d="M62.4426 37.2951H45.8196" stroke="white" stroke-width="0.42623"/>
<path d="M62.4426 37.2951H64.041" stroke="white" stroke-width="0.42623"/>
</svg>
