<svg width="85" height="54" viewBox="0 0 85 54" fill="none" xmlns="http://www.w3.org/2000/svg">
<path d="M29.9077 9.41541L21.3231 32.6769L35.0308 39.6L43.7538 16.3385L29.9077 9.41541Z" fill="white" stroke="white" stroke-width="0.276923"/>
<path d="M36.5539 39.6L44.8616 17.8615L52.7539 34.0615L36.5539 39.6Z" fill="white" stroke="white" stroke-width="0.276923"/>
<path d="M16.414 19.3343L13.7454 20.0895C13.5776 19.6448 13.3301 19.2126 13.0028 18.793C12.6839 18.365 12.2475 18.0126 11.6937 17.7357C11.1398 17.4588 10.4308 17.3203 9.56643 17.3203C8.38319 17.3203 7.39718 17.593 6.60836 18.1385C5.82796 18.6755 5.43775 19.3594 5.43775 20.1902C5.43775 20.9287 5.70628 21.5119 6.24335 21.9399C6.78039 22.3678 7.61957 22.7245 8.76083 23.0098L11.6307 23.7147C13.3594 24.1343 14.6475 24.7762 15.4951 25.6406C16.3426 26.4965 16.7664 27.6 16.7664 28.9509C16.7664 30.0586 16.4475 31.0489 15.8098 31.9218C15.1804 32.7943 14.2993 33.4825 13.1664 33.9859C12.0335 34.4894 10.7161 34.7414 9.21396 34.7414C7.24193 34.7414 5.60978 34.3133 4.31746 33.4573C3.02514 32.6013 2.20697 31.351 1.86292 29.7064L4.6825 29.0013C4.95103 30.042 5.45871 30.8224 6.20558 31.3427C6.96083 31.863 7.94684 32.1231 9.16361 32.1231C10.5482 32.1231 11.6475 31.8293 12.4615 31.2419C13.2839 30.6462 13.6951 29.9329 13.6951 29.1021C13.6951 28.4309 13.4601 27.8684 12.9902 27.4154C12.5203 26.9538 11.7986 26.6098 10.8252 26.3832L7.60276 25.628C5.83215 25.2084 4.53144 24.558 3.70067 23.6769C2.87829 22.7874 2.46711 21.6755 2.46711 20.3412C2.46711 19.2503 2.77342 18.2853 3.386 17.4462C4.00697 16.607 4.85034 15.9483 5.91605 15.4699C6.99018 14.9916 8.20698 14.7524 9.56643 14.7524C11.4797 14.7524 12.9818 15.172 14.0727 16.0112C15.172 16.8504 15.9524 17.958 16.414 19.3343Z" fill="white"/>
<path d="M61.074 8.55939V34.3384H58.1035V8.55939H61.074ZM74.6214 34.7413C72.7585 34.7413 71.1515 34.3301 69.8004 33.5076C68.4576 32.6769 67.4214 31.5188 66.6914 30.0336C65.9695 28.5399 65.6086 26.8027 65.6086 24.8223C65.6086 22.8419 65.9695 21.0964 66.6914 19.586C67.4214 18.0671 68.4368 16.8839 69.7375 16.0363C71.0466 15.1804 72.5738 14.7524 74.3192 14.7524C75.3261 14.7524 76.3206 14.9202 77.3025 15.2559C78.2842 15.5915 79.1779 16.137 79.9837 16.8923C80.7893 17.6391 81.4312 18.6293 81.9094 19.8629C82.3877 21.0964 82.6269 22.6153 82.6269 24.4195V25.6783H67.7235V23.1104H79.606C79.606 22.0195 79.3878 21.0461 78.9513 20.1902C78.5235 19.3342 77.9109 18.6587 77.1137 18.1636C76.3247 17.6685 75.3934 17.4209 74.3192 17.4209C73.1359 17.4209 72.1122 17.7146 71.2479 18.302C70.3919 18.8811 69.7331 19.6363 69.2718 20.5678C68.8101 21.4993 68.5795 22.4978 68.5795 23.5636V25.2755C68.5795 26.7356 68.8312 27.9733 69.3346 28.9888C69.8464 29.9957 70.5556 30.7636 71.462 31.2922C72.3683 31.8126 73.4215 32.0726 74.6214 32.0726C75.4017 32.0726 76.1068 31.9635 76.7359 31.7453C77.3737 31.5188 77.9234 31.1831 78.385 30.7384C78.8464 30.2854 79.2031 29.7229 79.4548 29.0517L82.3248 29.8572C82.0227 30.8306 81.5151 31.6866 80.8017 32.4251C80.0884 33.1551 79.2075 33.7259 78.1585 34.1371C77.1095 34.5397 75.9304 34.7413 74.6214 34.7413Z" fill="white"/>
<path d="M27.6419 51.5077V45.0629H31.5063V45.7552H28.4222V47.9329H31.2167V48.6252H28.4222V51.5077H27.6419ZM33.6234 45.0629V51.5077H32.8427V45.0629H33.6234ZM40.2986 45.0629V51.5077H39.5432L36.0315 46.4475H35.9684V51.5077H35.188V45.0629H35.9432L39.4679 50.1356H39.5307V45.0629H40.2986ZM43.8491 51.5077H41.8602V45.0629H43.9371C44.5624 45.0629 45.0971 45.1919 45.5419 45.45C45.9866 45.7059 46.3278 46.0742 46.5648 46.5547C46.8019 47.0329 46.9204 47.6056 46.9204 48.2727C46.9204 48.944 46.8008 49.5222 46.5615 50.0068C46.3225 50.4892 45.9742 50.8606 45.5167 51.1206C45.0595 51.3787 44.5034 51.5077 43.8491 51.5077ZM42.6406 50.8154H43.7987C44.3315 50.8154 44.7731 50.7127 45.1235 50.5069C45.4738 50.3014 45.7349 50.0087 45.9071 49.6291C46.0791 49.2494 46.165 48.7972 46.165 48.2727C46.165 47.7524 46.0802 47.3046 45.9102 46.9291C45.7402 46.5514 45.4865 46.262 45.1487 46.0606C44.8108 45.8571 44.3902 45.7552 43.8867 45.7552H42.6406V50.8154ZM48.2294 51.5077V45.0629H52.1188V45.7552H49.0098V47.9329H51.9175V48.6252H49.0098V50.8154H52.1692V51.5077H48.2294ZM53.5256 51.5077V45.0629H55.7033C56.2067 45.0629 56.6199 45.149 56.9431 45.321C57.2663 45.491 57.5052 45.7247 57.6606 46.0227C57.8157 46.3207 57.8935 46.6594 57.8935 47.0393C57.8935 47.419 57.8157 47.7557 57.6606 48.0492C57.5052 48.343 57.2671 48.5737 56.9461 48.7415C56.6252 48.9074 56.2151 48.9902 55.7158 48.9902H53.9534V48.2854H55.6906C56.0348 48.2854 56.3117 48.235 56.5213 48.1342C56.7332 48.0337 56.8863 47.8908 56.9807 47.7064C57.0774 47.5195 57.1256 47.2971 57.1256 47.0393C57.1256 46.7812 57.0774 46.5555 56.9807 46.3625C56.8844 46.1695 56.7301 46.0208 56.5183 45.9158C56.3064 45.8087 56.0262 45.7552 55.6781 45.7552H54.3059V51.5077H53.5256ZM56.559 48.6125L58.1452 51.5077H57.2388L55.6781 48.6125H56.559Z" fill="white"/>
<path d="M25.7538 48.3231H4.15381" stroke="white" stroke-width="0.553846"/>
<path d="M81.1384 48.4615H59.5384" stroke="white" stroke-width="0.553846"/>
<path d="M81.1384 48.4615H83.2154" stroke="white" stroke-width="0.553846"/>
</svg>
