<svg width="21" height="21" viewBox="0 0 21 21" fill="none" xmlns="http://www.w3.org/2000/svg">
<path d="M13.913 6.95652C13.913 10.7985 10.7985 13.913 6.95652 13.913C3.11454 13.913 0 10.7985 0 6.95652C0 3.11454 3.11454 0 6.95652 0C10.7985 0 13.913 3.11454 13.913 6.95652ZM1.44185 6.95652C1.44185 10.0022 3.91085 12.4712 6.95652 12.4712C10.0022 12.4712 12.4712 10.0022 12.4712 6.95652C12.4712 3.91085 10.0022 1.44185 6.95652 1.44185C3.91085 1.44185 1.44185 3.91085 1.44185 6.95652Z" fill="#1673D0"/>
<path d="M11.1304 12.5217L18.6087 20L20 18.6087L12.5217 11.1304L11.1304 12.5217Z" fill="#1673D0" stroke="#1673D0" stroke-width="0.347826"/>
</svg>
